<?xml version="1.0" encoding="UTF-8" standalone="no"?>
<svg xmlns="http://www.w3.org/2000/svg"
     width="393.29999"
     height="73.739998"
     fill="#ffffff"
     viewBox="0 0 393.29999 73.739998">
  <g transform="translate(0,-425.068)">
    <path
      d="M 377.788,447.6 L 375.169,457.415 C 373.57,455.961 371.607,454.943 369.354,454.943 C 365.428,454.943 362.882,456.615 362.882,463.232 L 362.882,483.881 L 352.848,483.881 L 352.848,445.71 L 362.882,445.71 L 362.882,448.254 C 364.627,446.437 367.173,444.91 370.735,444.91 C 374.006,444.91 376.479,446.218 377.788,447.6 z M 123.409,472.757 C 123.409,481.554 116.43,484.681 107.85,484.681 C 101.814,484.681 95.926,482.936 91.854,480.245 L 95.198,472.611 C 99.27,474.865 103.56,476.101 108.431,476.101 C 112.357,476.101 113.52,475.156 113.52,473.192 C 113.52,471.446 112.139,470.574 107.921,469.338 C 98.76,466.574 92.87,464.321 92.87,456.25 C 92.87,448.325 99.196,444.908 108.14,444.908 C 112.938,444.908 118.174,446.361 122.245,448.616 L 119.045,456.541 C 115.264,454.505 111.12,453.488 107.92,453.488 C 103.849,453.488 102.758,454.288 102.758,455.96 C 102.758,457.56 103.922,458.214 110.684,460.396 C 117.521,462.649 123.409,465.123 123.409,472.757 z M 158.669,464.832 C 158.669,466.285 158.597,467.304 158.524,468.03 L 135.693,468.03 C 136.057,473.265 139.91,475.228 143.546,475.228 C 146.308,475.228 148.635,474.21 150.089,472.538 L 157.215,478.5 C 154.161,482.426 148.634,484.681 143.546,484.681 C 132.567,484.681 125.586,476.902 125.586,464.832 C 125.586,453.125 132.931,444.91 142.601,444.91 C 152.781,444.91 158.669,453.925 158.669,464.832 z M 148.926,460.468 C 148.635,457.051 146.6,453.634 142.092,453.634 C 138.456,453.634 136.203,456.615 135.839,460.468 L 148.926,460.468 z M 195.97,483.881 L 185.936,483.881 L 185.936,463.232 C 185.936,456.397 183.609,454.361 179.464,454.361 C 175.32,454.361 172.921,456.397 172.921,463.014 L 172.921,483.881 L 162.887,483.881 L 162.887,445.71 L 172.921,445.71 L 172.921,448.254 C 174.666,446.437 177.865,444.91 181.864,444.91 C 191.607,444.91 195.969,451.599 195.969,462.359 L 195.969,483.881 L 195.97,483.881 z M 233.405,483.881 L 223.371,483.881 L 223.371,481.482 C 221.48,483.155 218.936,484.681 215.301,484.681 C 207.158,484.681 200.468,478.574 200.468,464.323 C 200.468,452.908 205.849,444.91 215.301,444.91 C 218.645,444.91 221.554,446.218 223.371,447.891 L 223.371,435.893 C 224.043,435.531 230.304,433.061 233.405,432.784 L 233.405,483.881 z M 223.372,472.03 L 223.372,457.634 C 221.845,455.525 219.519,454.361 216.61,454.361 C 212.757,454.361 210.648,457.706 210.648,464.104 C 210.648,471.957 213.266,475.229 217.192,475.229 C 220.318,475.229 221.918,473.92 223.372,472.03 z M 270.676,483.881 L 260.642,483.881 L 260.642,481.336 C 258.823,483.226 255.625,484.681 252.062,484.681 C 244.936,484.681 237.811,480.319 237.811,471.085 C 237.811,462.65 244.645,458.433 253.298,458.433 C 256.787,458.433 259.042,459.161 260.642,459.961 L 260.642,458.07 C 260.642,455.38 258.823,453.198 255.189,453.198 C 250.608,453.198 248.209,453.853 244.718,455.743 L 240.865,448.763 C 245.301,446.218 249.009,444.91 255.189,444.91 C 264.423,444.91 270.676,449.708 270.676,458.287 L 270.676,483.881 z M 260.642,472.683 L 260.642,467.885 C 258.897,466.794 257.225,466.285 253.661,466.285 C 249.88,466.285 247.844,468.03 247.844,471.084 C 247.844,473.773 249.372,476.173 253.661,476.173 C 256.933,476.174 259.551,474.502 260.642,472.683 z M 309.482,483.881 L 299.448,483.881 L 299.448,463.232 C 299.448,456.397 297.121,454.361 292.977,454.361 C 288.833,454.361 286.434,456.397 286.434,463.014 L 286.434,483.881 L 276.4,483.881 L 276.4,445.71 L 286.434,445.71 L 286.434,448.254 C 288.179,446.437 291.377,444.91 295.377,444.91 C 305.12,444.91 309.482,451.599 309.482,462.359 L 309.482,483.881 z M 348.518,464.832 C 348.518,476.538 341.175,484.681 331.213,484.681 C 321.253,484.681 313.981,476.538 313.981,464.832 C 313.981,453.125 321.252,444.91 331.213,444.91 C 341.175,444.91 348.518,453.125 348.518,464.832 z M 338.339,464.832 C 338.339,459.015 336.013,454.58 331.213,454.58 C 326.415,454.58 324.16,458.942 324.16,464.832 C 324.16,470.721 326.414,475.011 331.213,475.011 C 336.013,475.011 338.339,470.139 338.339,464.832 z"/>
    <g>
      <path style="fill:#0089d0"
            d="M 0,429.344 C 0,426.982 1.915,425.068 4.276,425.068 L 69.467,425.068 C 71.829,425.068 73.743,426.983 73.743,429.344 L 73.743,494.536 C 73.743,496.898 71.828,498.812 69.467,498.812 L 4.276,498.812 C 1.915,498.812 0,496.898 0,494.536 L 0,429.344 L 0,429.344 z"/>
      <path style="fill:#0089d0"
            d=""/>
    </g>
    <path style="fill:#ffffff"
          d="M 46.151,481.697 L 48.338,489.122 L 50.457,480.572 L 46.151,481.697 z M 14.717,455.587 L 14.725,456.544 L 19.913,457.786 L 20.645,454.069 L 14.717,455.587 z M 24.467,453.089 L 23.053,458.536 L 36.816,461.828 L 32.853,450.94 L 24.467,453.089 z M 36.794,449.93 L 40.563,462.725 L 54.079,465.958 L 59.493,444.114 L 36.794,449.93 z M 30.796,445.291 L 28.283,438.386 L 26.119,446.723 L 30.796,445.291 z M 61.109,472.159 L 55.624,470.773 L 54.466,474.387 L 61.109,472.159 z M 51.766,475.292 L 53.047,470.122 L 41.912,467.308 L 44.938,477.582 L 51.766,475.292 z M 15.466,487.462 L 42.809,478.295 L 38.496,466.444 L 22.078,462.294 L 17.58,479.62 C 17.423,480.029 16.927,480.216 16.395,480.019 C 15.922,479.845 15.535,479.378 15.82,478.553 L 19.17,461.559 L 5.703,458.155 C 2.692,457.03 2.691,453.963 5.031,453.183 L 21.832,448.037 L 24.285,435.574 C 25.095,431.039 31.146,430.354 32.279,434.602 L 35.044,443.989 L 62.382,435.614 C 64.59,434.879 66.897,436.644 65.532,439.854 L 56.947,466.644 L 67.116,469.076 C 71.35,469.806 71.622,474.975 67.087,476.226 L 52.669,479.993 L 49.009,491.415 C 48.686,492.382 47.903,492.373 47.581,491.406 L 44.23,482.198 L 14.707,489.913 C 13.635,490.27 13.181,489.83 13.252,488.468 C 13.325,487.093 14.017,485.205 14.995,483.829 C 15.314,483.381 16.859,483.281 16.338,484.843 L 15.466,487.462 z"/>
  </g>
</svg>
